<svg width="64" height="64" viewBox="0 0 24 24" fill="none" xmlns="http://www.w3.org/2000/svg">
  <circle cx="12" cy="12" r="12" fill="aqua"/>
  <path fill-rule="evenodd" clip-rule="evenodd" d="M17.472 14.382c-.297-.149-1.758-.867-2.031-.967-.273-.099-.472-.149-.67.15-.198.297-.768.966-.941 1.164-.173.198-.347.223-.644.074-.297-.149-1.255-.463-2.39-1.475-.883-.788-1.48-1.761-1.653-2.059-.173-.297-.018-.458.13-.606.134-.133.298-.347.446-.52.149-.173.198-.297.298-.495.099-.198.05-.371-.025-.52-.074-.149-.67-1.612-.916-2.206-.242-.579-.487-.5-.67-.51l-.57-.01c-.198 0-.52.074-.792.372s-1.04 1.016-1.04 2.479 1.065 2.876 1.213 3.074c.149.198 2.095 3.2 5.076 4.487.709.306 1.262.489 1.694.626.712.227 1.36.195 1.872.118.571-.085 1.758-.719 2.006-1.413.248-.694.248-1.29.173-1.413-.074-.123-.273-.198-.57-.347z" fill="white"/>
</svg>